<svg xmlns="http://www.w3.org/2000/svg" viewBox="0 0 64 64" width="64" height="64">
  <defs>
    <linearGradient id="bg" x1="0" y1="0" x2="1" y2="1">
      <stop offset="0" stop-color="#2563eb"/>
      <stop offset="1" stop-color="#4f46e5"/>
    </linearGradient>
  </defs>
  <rect width="64" height="64" rx="14" fill="url(#bg)"/>
  <g fill="#ffffff">
    <!-- Building -->
    <rect x="14" y="16" width="16" height="34" rx="1.5"/>
    <rect x="34" y="24" width="16" height="26" rx="1.5"/>
    <!-- Windows left tower -->
    <rect x="17" y="20" width="4" height="4" fill="#2563eb"/>
    <rect x="23" y="20" width="4" height="4" fill="#2563eb"/>
    <rect x="17" y="27" width="4" height="4" fill="#2563eb"/>
    <rect x="23" y="27" width="4" height="4" fill="#2563eb"/>
    <rect x="17" y="34" width="4" height="4" fill="#2563eb"/>
    <rect x="23" y="34" width="4" height="4" fill="#2563eb"/>
    <rect x="17" y="41" width="4" height="4" fill="#2563eb"/>
    <rect x="23" y="41" width="4" height="4" fill="#2563eb"/>
    <!-- Windows right tower -->
    <rect x="37" y="28" width="4" height="4" fill="#2563eb"/>
    <rect x="43" y="28" width="4" height="4" fill="#2563eb"/>
    <rect x="37" y="35" width="4" height="4" fill="#2563eb"/>
    <rect x="43" y="35" width="4" height="4" fill="#2563eb"/>
    <rect x="37" y="42" width="4" height="4" fill="#2563eb"/>
    <rect x="43" y="42" width="4" height="4" fill="#2563eb"/>
    <!-- Roof accent -->
    <path d="M12 16 L22 8 L32 16 Z" opacity="0.85"/>
  </g>
</svg>
